:SAMPLES-PER-SECOND 30
:FULLY-SPECIFIED
:DEGREES
131
root  34.77740851 36.55630097 -14.23322272 9.974225044 -4.314885139 4.48276329
lowerback  -7.598100185 -0.1874600053 -0.9204660654
upperback  -4.111657143 0.3878110051 -4.73898983
thorax  0.03907309845 0.3909229934 -4.358920097
lowerneck  -4.130680084 -16.16839981 -10.79609966
upperneck  7.227650166 -22.07210159 12.27970028
head  5.401830196 -10.55720043 3.686039925
lclavicle  0 -4.497500157e-015 -2.743230041e-014
lhumerus  -47.92710114 30.05290031 61.33129883
lradius  0.006620147731 -6.507048965e-006 29.12170029
lwrist  4.824992743e-007 -3.790274832e-007 -30.34810257
lhand  -3.523645932e-031 -36.72829819 -10.61279964
lfingers  90 7.125020027 -90
lthumb  94.72257996 -25.45578575 100.8797607
rclavicle  0 -4.497500157e-015 -2.743230041e-014
rhumerus  28.84390259 -44.34629822 -34.76369858
rradius  -5.16745672e-007 2.214343908e-008 60.06969833
rwrist  -2.867388866e-005 0.08949262649 -168.8529968
rhand  -3.176609877e-031 4.220739841 -5.305339813
rfingers  -90 -7.125020027 -90
rthumb  -83.98096466 -10.447258 -59.82281876
rfemur  -11.93129253 14.35336685 11.88740921
rtibia  -0.9043540359 -2.018037796 19.25653839
rfoot  1.1128546 -22.68010139 -34.65805054
rtoes  4.04254818 19.60330009 -101.8950806
lfemur  -3.9253335 -16.94054794 -23.54313469
ltibia  7.089364052 -0.8732025623 7.018481255
lfoot  0.7797088027 -20.56579971 36.58234024
ltoes  -8.556124687 -18.14553261 -115.7851791
132
root  34.78006078 36.55604565 -14.2339391 9.967948914 -4.247774601 4.536521912
lowerback  -7.584460258 -0.1715840697 -0.8823409677
upperback  -4.113785267 0.4052239954 -4.74409008
thorax  0.04068699852 0.3986040056 -4.384550095
lowerneck  -4.146450043 -16.19120026 -10.7098999
upperneck  7.177010059 -22.0970974 12.22239971
head  5.372914314 -10.57062721 3.658941031
lclavicle  0 -4.497500157e-015 -2.743230041e-014
lhumerus  -47.8893013 30.11949921 61.27249908
lradius  0.006620147731 -6.507048965e-006 29.09070015
lwrist  4.824992743e-007 -3.790274832e-007 -30.50959969
lhand  -3.51476197e-031 -36.73849869 -10.71860027
lfingers  90 7.125020027 -90
lthumb  94.74953461 -25.55935287 100.9002609
rclavicle  0 -4.497500157e-015 -2.743230041e-014
rhumerus  29.52800369 -44.54449844 -34.77959824
rradius  -5.16745672e-007 2.214343908e-008 58.9939003
rwrist  -2.867388866e-005 0.08892836422 -168.3860016
rhand  -3.189450277e-031 4.329299927 -5.114290237
rfingers  -90 -7.125020027 -90
rthumb  -83.85449982 -10.61727333 -59.69842148
rfemur  -11.97513485 14.36179447 11.8603878
rtibia  -0.950137496 -1.980584621 19.37179184
rfoot  1.072576761 -22.57855988 -34.69934845
rtoes  4.025422573 19.60330009 -101.8440399
lfemur  -3.526266098 -16.99748611 -23.75638962
ltibia  7.38422966 -0.9104001522 6.353412628
lfoot  0.7126809955 -20.23891068 36.58830643
ltoes  -8.570316315 -18.13901138 -115.8307571
133
root  34.78176087 36.55565217 -14.23517963 9.959734917 -4.168076515 4.551254749
lowerback  -7.568900108 -0.1577259898 -0.855931282
upperback  -4.115389824 0.4247159958 -4.777200222
thorax  0.02588119917 0.4089109898 -4.432940006
lowerneck  -4.120699883 -16.20750046 -10.6267004
upperneck  7.118309975 -22.11560249 12.1729002
head  5.342958927 -10.58377361 3.631954193
lclavicle  0 -4.497500157e-015 -2.743230041e-014
lhumerus  -47.85889816 30.08939934 61.23429871
lradius  0.006620147731 -6.507048965e-006 29.09630013
lwrist  4.824992743e-007 -3.790274832e-007 -30.55380058
lhand  -3.513445985e-031 -36.77090073 -10.72990036
lfingers  90 7.125020027 -90
lthumb  94.76712799 -25.56932831 100.9359665
rclavicle  0 -4.497500157e-015 -2.743230041e-014
rhumerus  30.16829872 -44.7582016 -34.84260178
rradius  -5.16745672e-007 2.214343908e-008 57.92950058
rwrist  -2.867388866e-005 0.088362813 -167.7740021
rhand  -3.197681024e-031 4.240640163 -4.992919922
rfingers  -90 -7.125020027 -90
rthumb  -83.81582642 -10.71817207 -59.77392197
rfemur  -11.9872179 14.37267017 11.8692894
rtibia  -0.9724392891 -1.939714313 19.42809677
rfoot  1.05009985 -22.49158859 -34.75643539
rtoes  4.030930042 19.60330009 -101.8604584
lfemur  -3.450364113 -17.08049774 -23.79107285
ltibia  7.437726974 -0.9206361771 6.231992245
lfoot  0.7034186721 -20.1673584 36.61383057
ltoes  -8.606805801 -18.12218094 -115.9480133
134
root  34.78456332 36.5551115 -14.2376682 9.949183464 -4.103791237 4.585120201
lowerback  -7.566199303 -0.1401949227 -0.832942903
upperback  -4.116808414 0.4483529925 -4.792739868
thorax  0.01701729931 0.4210129976 -4.460609913
lowerneck  -4.103519917 -16.22809982 -10.56999969
upperneck  7.094180107 -22.14250183 12.13899994
head  5.32366848 -10.59799004 3.616124153
lclavicle  0 -4.497500157e-015 -2.743230041e-014
lhumerus  -47.84659958 30.13660049 61.1692009
lradius  0.006620147731 -6.507048965e-006 29.06760025
lwrist  4.824992743e-007 -3.790274832e-007 -30.67099762
lhand  -3.524292251e-031 -36.78480148 -10.59710026
lfingers  90 7.125020027 -90
lthumb  94.74571991 -25.43851852 100.9387817
rclavicle  0 -4.497500157e-015 -2.743230041e-014
rhumerus  30.71210098 -44.86349869 -34.75130081
rradius  -5.16745672e-007 2.214343908e-008 56.92720032
rwrist  -2.867388866e-005 0.08779620379 -167.4259949
rhand  -3.193107435e-031 4.257309914 -5.060579777
rfingers  -90 -7.125020027 -90
rthumb  -83.84604645 -10.66047573 -59.76399231
rfemur  -11.99447727 14.41510963 11.8546505
rtibia  -1.001424193 -1.919896007 19.48240852
rfoot  1.012765646 -22.43118668 -34.85586166
rtoes  4.015721321 19.60330009 -101.8151321
lfemur  -3.32115221 -17.16807556 -23.87432098
ltibia  7.528612137 -0.9568663836 6.024354935
lfoot  0.6752001643 -20.01477051 36.61595154
ltoes  -8.611367226 -18.1200695 -115.9626846
135
root  34.78383042 36.5539761 -14.23957554 9.934591293 -3.993074179 4.614823818
lowerback  -7.568339825 -0.1416799724 -0.7953470945
upperback  -4.11838007 0.4459379911 -4.811810017
thorax  0.01840350032 0.422103405 -4.50221014
lowerneck  -4.10766983 -16.25200081 -10.5248003
upperneck  7.069749832 -22.17449951 12.1310997
head  5.312689781 -10.61250019 3.606580019
lclavicle  0 -4.497500157e-015 -2.743230041e-014
lhumerus  -47.79710007 30.09180069 61.15790176
lradius  0.006620147731 -6.507048965e-006 29.04319954
lwrist  4.824992743e-007 -3.790274832e-007 -30.65880013
lhand  -3.526670657e-031 -36.73759842 -10.57499981
lfingers  90 7.125020027 -90
lthumb  94.71903992 -25.41831589 100.8863525
rclavicle  0 -4.497500157e-015 -2.743230041e-014
rhumerus  31.38589859 -45.03010178 -34.83789825
rradius  -5.16745672e-007 2.214343908e-008 55.88619995
rwrist  -2.867388866e-005 0.08722876012 -167.026001
rhand  -3.170628377e-031 4.191790104 -5.394219875
rfingers  -90 -7.125020027 -90
rthumb  -84.03392029 -10.36903667 -59.85938263
rfemur  -11.96094322 14.41393089 11.86057758
rtibia  -1.028368115 -1.92633605 19.49157906
rfoot  0.9911971688 -22.41659355 -34.95103836
rtoes  4.033239841 19.60330009 -101.8673401
lfemur  -3.251017094 -17.27099228 -23.91925621
ltibia  7.56589365 -0.986967802 5.931092262
lfoot  0.6473286152 -19.92588425 36.55560303
ltoes  -8.596512794 -18.12693596 -115.9149323
